<?xml version="1.0" standalone="no"?>
<!DOCTYPE svg PUBLIC "-//W3C//DTD SVG 20010904//EN"
 "http://www.w3.org/TR/2001/REC-SVG-20010904/DTD/svg10.dtd">
<svg version="1.0" xmlns="http://www.w3.org/2000/svg"
 width="2425.000000pt" height="1543.000000pt" viewBox="0 0 2425.000000 1543.000000"
 preserveAspectRatio="xMidYMid meet">

<g transform="translate(0.000000,1543.000000) scale(0.100000,-0.100000)"
fill="#000000" stroke="none">
<path d="M10 7710 l0 -7710 12120 0 12120 0 0 7710 0 7710 -12120 0 -12120 0
0 -7710z m12100 3124 c0 -3 -12 -23 -27 -45 -43 -59 -58 -50 -26 16 10 21 24
35 35 35 10 0 18 -3 18 -6z m388 -125 c22 -9 27 -26 16 -66 -9 -33 -21 -28
-29 10 -9 41 -19 47 -76 47 -73 0 -119 -46 -134 -136 -8 -51 8 -115 38 -149
25 -30 82 -46 129 -36 28 6 34 12 43 49 13 53 33 43 27 -15 -4 -41 -5 -42 -53
-53 -53 -13 -106 -7 -150 16 -112 57 -109 261 4 321 58 30 122 35 185 12z
m-625 -7 c-13 -10 -30 -44 -42 -82 -77 -257 -82 -270 -99 -270 -12 0 -36 44
-87 161 -56 130 -75 163 -95 171 l-25 10 25 9 c13 6 45 8 70 6 37 -3 41 -5 23
-11 -13 -5 -23 -10 -23 -13 0 -12 114 -263 119 -263 10 0 83 259 76 270 -3 5
-13 10 -21 10 -8 0 -14 5 -14 10 0 6 26 10 58 10 56 0 57 -1 35 -18z m225 5
l-28 -11 0 -158 0 -158 25 0 c14 0 25 -4 25 -10 0 -6 -32 -10 -77 -9 -67 1
-74 3 -50 12 l27 11 0 158 0 158 -25 0 c-14 0 -25 5 -25 10 0 6 32 10 78 9 66
-1 73 -3 50 -12z m763 -8 c153 -52 157 -301 6 -358 -116 -44 -237 44 -237 173
1 138 110 225 231 185z m-1401 -9 c0 -5 -6 -10 -12 -10 -39 -1 -40 -12 -27
-169 12 -146 13 -152 35 -157 40 -10 27 -24 -23 -24 -27 0 -58 -3 -70 -6 -13
-4 -23 -2 -23 4 0 5 12 13 26 16 23 6 25 10 20 44 -3 20 -8 78 -11 127 -9 130
-12 142 -42 150 -40 10 -15 23 52 28 33 2 63 4 68 5 4 1 7 -2 7 -8z m1799 -35
c2 -3 -10 -8 -27 -11 -36 -7 -35 -3 -56 -189 -7 -66 -11 -123 -7 -126 3 -4 32
-9 63 -12 l57 -5 11 34 c6 19 16 34 21 34 13 0 11 -77 -2 -85 -13 -9 -248 15
-254 25 -3 4 8 10 24 13 l28 6 16 143 c21 176 21 165 -3 171 -11 3 -20 9 -20
14 0 9 139 -3 149 -12z m-2173 -10 c-10 -8 -23 -16 -27 -17 -9 -3 23 -293 34
-304 4 -4 33 -3 64 2 58 9 58 9 61 47 5 63 32 40 32 -28 l0 -32 -112 -12 c-62
-7 -121 -15 -130 -17 -10 -3 -18 -1 -18 5 0 6 12 14 26 17 24 6 26 10 21 48
-3 22 -11 91 -18 153 l-12 112 -30 7 c-55 12 -8 27 98 32 28 1 29 0 11 -13z
m-290 -70 c97 -74 98 -247 1 -312 -117 -79 -261 -3 -274 145 -9 95 34 166 116
193 48 16 117 4 157 -26z m2878 -142 c25 -121 42 -182 53 -190 26 -20 11 -24
-47 -13 -58 11 -76 20 -40 20 21 0 22 3 16 47 -3 25 -8 49 -11 51 -2 3 -37 10
-76 17 l-70 12 -26 -40 c-20 -32 -22 -41 -11 -48 7 -5 17 -9 21 -9 5 0 6 -4 2
-9 -6 -10 -70 -4 -94 9 -10 5 -7 9 10 13 18 5 46 44 114 162 57 100 95 155
105 155 13 0 24 -36 54 -177z m-3543 -74 c32 -63 18 -156 -26 -173 -13 -5 -12
0 4 20 29 37 28 107 -3 167 -14 28 -17 42 -9 35 8 -6 23 -29 34 -49z m4022 9
c-25 -47 -24 -139 2 -170 l20 -23 -24 20 c-13 11 -28 31 -33 45 -13 34 -1 103
23 134 28 35 33 33 12 -6z m-4217 -115 c52 -39 40 -46 -18 -11 -29 17 -63 38
-75 45 -12 7 -27 22 -33 33 -9 17 -3 15 41 -11 29 -16 67 -42 85 -56z m98 8
c28 -17 46 -31 41 -31 -14 0 -101 59 -121 83 l-19 22 25 -21 c14 -12 47 -36
74 -53z m4410 48 c-10 -12 -39 -32 -64 -46 -25 -14 -58 -35 -75 -46 l-30 -20
30 32 c28 31 129 98 149 100 5 1 1 -8 -10 -20z m-134 3 c0 -4 -10 -13 -22 -21
-23 -14 -23 -14 -4 8 20 22 26 25 26 13z m-80 -57 c0 -2 -10 -9 -22 -15 -22
-11 -22 -10 -4 4 21 17 26 19 26 11z m-4564 -116 c11 -9 26 -19 34 -22 13 -5
12 -6 -1 -6 -26 -1 -69 38 -68 62 0 21 1 21 8 2 5 -11 17 -27 27 -36z m4944
-11 c-12 -10 -32 -18 -44 -18 -16 0 -13 4 14 18 23 11 37 26 39 42 l5 25 4
-25 c3 -16 -3 -30 -18 -42z m-423 -15 c-3 -10 -5 -4 -5 12 0 17 2 24 5 18 2
-7 2 -21 0 -30z m-4100 -5 c-3 -8 -6 -5 -6 6 -1 11 2 17 5 13 3 -3 4 -12 1
-19z m4450 -4 c-3 -3 -12 -4 -19 -1 -8 3 -5 6 6 6 11 1 17 -2 13 -5z m-4647
-1199 l0 -795 148 0 c140 0 151 1 201 26 77 39 105 86 110 186 l3 78 79 0 79
0 0 -220 0 -220 -480 0 -480 0 0 728 c0 497 -4 740 -11 767 -15 55 -66 103
-118 111 l-41 7 0 63 0 64 255 0 255 0 0 -795z m1708 84 c81 -438 141 -730
154 -761 24 -57 63 -93 118 -109 22 -7 40 -17 40 -23 0 -6 13 -39 30 -73 l29
-63 -228 0 -228 0 -34 168 -35 167 -236 3 c-219 2 -237 1 -242 -15 -3 -10 -19
-87 -37 -170 l-33 -153 -153 0 -153 0 5 23 c3 12 35 150 71 307 267 1166 264
1151 225 1216 -22 35 -75 64 -120 64 l-31 0 0 65 0 65 363 0 362 0 133 -711z
m744 -36 c3 -826 0 -790 67 -846 49 -40 103 -52 184 -38 86 14 158 50 194 98
l28 36 3 749 2 748 170 0 170 0 2 -792 3 -793 93 -3 92 -3 0 -74 0 -75 -258 0
c-251 0 -261 -1 -333 -25 -139 -48 -347 -68 -461 -44 -108 23 -196 87 -238
173 -53 111 -53 107 -59 771 -4 458 -9 626 -18 641 -21 37 -81 83 -118 90
l-35 6 0 64 0 64 255 0 254 0 3 -747z m1928 723 c102 -27 208 -83 265 -140
131 -131 160 -335 73 -515 -41 -84 -158 -204 -245 -252 -35 -19 -63 -37 -63
-41 0 -12 173 -280 250 -388 37 -53 87 -113 110 -134 47 -42 124 -81 183 -91
l37 -7 0 -74 0 -74 -237 2 -237 3 -222 345 -223 345 -56 3 -55 3 0 -351 0
-350 -175 0 -175 0 0 708 c0 798 1 781 -69 845 -22 20 -58 41 -80 47 l-41 11
0 65 0 65 448 -4 c382 -3 456 -6 512 -21z m-296 -2225 c3 -5 -8 -14 -25 -21
-67 -28 -123 -130 -104 -191 6 -19 9 -21 19 -8 24 32 61 49 109 49 40 0 53 -5
78 -29 24 -25 29 -38 29 -79 0 -87 -65 -140 -157 -129 -65 7 -106 52 -123 133
-23 111 23 213 119 264 41 22 48 23 55 11z m-3608 -37 c96 -19 150 -47 181
-93 31 -46 38 -93 23 -160 -10 -45 -21 -64 -56 -98 -56 -54 -101 -62 -227 -38
-93 18 -135 35 -85 35 15 0 29 4 33 9 6 11 65 296 65 317 0 7 -9 16 -20 19
-22 7 -27 25 -7 25 6 0 49 -7 93 -16z m3228 -68 c55 -36 95 -179 76 -271 -24
-116 -151 -152 -224 -64 -53 63 -74 219 -38 289 32 65 123 88 186 46z m-2710
-21 c61 -9 111 -17 113 -19 2 -2 1 -22 -3 -45 -8 -51 -34 -57 -34 -7 0 37 0
38 -101 51 -52 7 -46 16 -64 -101 -6 -40 -5 -41 26 -48 51 -10 76 -7 83 9 12
32 22 13 16 -30 -8 -53 -16 -64 -24 -37 -6 19 -43 32 -90 32 -20 0 -23 -7 -32
-80 -7 -56 -6 -81 2 -84 6 -2 41 -7 78 -11 l67 -7 12 31 c6 17 16 30 22 28 9
-4 9 -76 0 -86 -6 -6 -279 31 -288 39 -5 4 4 12 20 18 28 9 29 11 47 143 10
74 20 146 23 161 5 23 1 29 -21 38 -37 14 -33 32 7 26 17 -3 81 -13 141 -21z
m2332 -46 c15 -13 33 -38 40 -56 17 -39 18 -128 3 -174 -24 -71 -89 -132 -158
-145 -37 -8 -43 11 -6 20 63 16 125 102 125 174 l0 23 -30 -21 c-34 -24 -87
-35 -125 -26 -75 19 -102 123 -48 186 35 42 57 50 121 47 38 -3 59 -10 78 -28z
m-3342 5 c33 -32 8 -84 -39 -84 -15 0 -31 10 -41 25 -15 23 -15 27 0 50 19 29
56 33 80 9z m4596 -5 c26 -47 -25 -100 -69 -72 -20 13 -26 60 -10 79 18 22 66
18 79 -7z m-3136 -5 c21 -8 23 -99 2 -107 -10 -4 -15 6 -19 35 -7 49 -20 59
-71 56 -29 -2 -44 -10 -59 -30 -32 -43 -17 -72 64 -124 83 -53 104 -89 88
-148 -7 -24 -20 -41 -39 -51 -34 -17 -118 -20 -172 -4 -34 9 -38 13 -38 44 0
70 26 89 36 26 5 -33 12 -42 37 -50 45 -16 71 -13 101 10 18 15 26 30 26 53 0
37 -20 58 -92 99 -58 34 -78 61 -78 107 0 71 50 103 147 95 28 -3 58 -8 67
-11z m1439 -71 c4 -43 10 -126 13 -184 l7 -107 38 -6 c50 -8 50 -26 0 -26 -21
0 -66 -3 -100 -6 -67 -8 -87 9 -25 21 l37 6 -7 117 c-4 64 -9 136 -13 160 -6
47 -6 47 -75 26 -10 -3 -18 -2 -18 3 0 9 108 71 126 72 7 1 14 -30 17 -76z
m-1033 26 c57 -32 90 -92 90 -166 0 -66 -17 -108 -59 -149 -48 -47 -99 -58
-217 -47 -92 9 -97 10 -68 22 l31 12 7 160 c3 89 4 165 0 170 -3 5 -14 9 -25
9 -10 0 -19 5 -19 11 0 8 32 10 108 7 91 -4 115 -8 152 -29z m490 -24 c0 -52
-16 -59 -31 -15 -11 30 -12 30 -85 30 l-74 0 0 -75 0 -75 54 0 c46 0 56 3 61
20 12 37 25 21 25 -30 0 -48 -12 -66 -24 -35 -4 11 -21 15 -61 15 -62 0 -59 5
-49 -99 l7 -61 74 0 c73 0 74 0 84 30 17 47 39 38 39 -15 l0 -45 -155 0 c-143
0 -191 9 -130 24 l25 6 0 169 c0 166 0 170 -22 173 -12 2 -23 9 -26 16 -3 9
30 12 142 12 l146 0 0 -45z m3600 -3450 c0 -13 -411 -15 -3635 -15 -3224 0
-3635 2 -3635 15 0 13 411 15 3635 15 3224 0 3635 -2 3635 -15z m-5870 -450
c-13 -14 -28 -25 -33 -25 -6 0 0 11 13 25 13 14 28 25 33 25 6 0 0 -11 -13
-25z m-872 -66 c13 -5 20 -13 17 -19 -4 -6 -17 -4 -35 5 -81 42 -181 -12 -196
-107 -20 -119 82 -205 192 -163 53 20 70 14 25 -9 -38 -20 -123 -21 -161 -1
-66 34 -97 140 -62 218 37 83 121 112 220 76z m1579 -7 c63 -34 90 -137 55
-215 -29 -66 -70 -89 -149 -85 -67 4 -100 25 -129 80 -33 64 -6 183 49 218 46
29 122 29 174 2z m406 -2 c10 -10 7 -11 -13 -6 -132 37 -210 -13 -210 -134 0
-113 84 -175 189 -139 30 11 31 13 31 69 l0 59 -47 4 c-47 3 -47 3 10 5 l57 2
0 -69 c0 -67 -1 -69 -30 -81 -48 -20 -144 -9 -176 21 -39 36 -54 72 -54 129 0
91 42 147 120 160 43 7 108 -3 123 -20z m366 -8 c84 -61 80 -211 -8 -269 -73
-49 -184 -21 -223 57 -22 42 -23 121 -4 158 44 85 157 111 235 54z m2018 8
c55 -35 82 -154 49 -218 -29 -55 -62 -76 -129 -80 -79 -4 -120 19 -149 85 -35
79 -9 181 55 215 52 28 128 27 174 -2z m1095 8 c15 -6 25 -14 23 -19 -3 -4
-21 -1 -40 7 -46 19 -83 18 -124 -4 -95 -51 -94 -204 1 -262 39 -24 76 -25
125 -5 47 20 53 18 24 -5 -34 -29 -127 -28 -172 3 -113 75 -81 273 48 297 41
8 72 4 115 -12z m665 -8 c55 -35 82 -154 49 -218 -29 -55 -62 -76 -129 -80
-79 -4 -120 19 -149 85 -35 79 -9 181 55 215 52 28 128 27 174 -2z m351 5 c13
-13 -10 -16 -39 -6 -72 25 -139 -3 -139 -59 0 -36 15 -47 90 -70 80 -24 100
-43 100 -91 0 -53 -35 -79 -105 -79 -56 0 -118 17 -110 30 3 4 24 1 47 -7 76
-26 148 1 148 57 0 35 -23 54 -90 73 -80 24 -100 41 -100 86 0 44 23 70 72 80
31 7 115 -3 126 -14z m-6192 -57 c15 -40 42 -111 60 -158 18 -47 31 -87 29
-88 -9 -10 -26 12 -36 48 l-12 40 -83 0 -82 0 -18 -45 c-9 -25 -21 -45 -25
-45 -5 0 -9 2 -9 5 0 4 68 185 111 293 16 40 36 25 65 -50z m384 62 c0 -6 -27
-10 -60 -10 l-60 0 0 -150 c0 -93 -4 -150 -10 -150 -6 0 -10 57 -10 150 l0
150 -60 0 c-33 0 -60 4 -60 10 0 6 50 10 130 10 80 0 130 -4 130 -10z m242
-145 c61 -159 63 -165 49 -165 -5 0 -16 19 -23 43 l-15 42 -84 3 -84 3 -15
-42 c-8 -24 -21 -44 -28 -47 -9 -3 -7 10 6 45 11 26 39 99 62 161 31 82 48
112 59 110 9 -2 37 -60 73 -153z m168 5 l0 -150 100 0 c60 0 100 -4 100 -10 0
-6 -43 -10 -110 -10 l-110 0 0 160 c0 100 4 160 10 160 6 0 10 -57 10 -150z
m1748 130 c77 -35 103 -141 57 -231 -23 -43 -84 -69 -167 -69 l-68 0 0 160 0
160 68 0 c45 0 81 -7 110 -20z m392 10 c0 -6 -38 -10 -95 -10 l-95 0 0 -65 0
-65 88 -2 87 -2 -87 -3 -88 -4 0 -69 0 -70 95 0 c57 0 95 -4 95 -10 0 -6 -42
-10 -105 -10 l-105 0 0 160 0 160 105 0 c63 0 105 -4 105 -10z m425 0 c15 -6
32 -24 41 -45 12 -30 12 -39 0 -69 -19 -46 -42 -56 -125 -56 l-71 0 0 -70 c0
-40 -4 -70 -10 -70 -6 0 -10 60 -10 160 l0 160 74 0 c41 0 86 -4 101 -10z
m356 -19 c42 -42 40 -84 -7 -127 l-36 -34 36 -65 c23 -41 31 -65 23 -65 -7 0
-28 32 -47 70 l-34 70 -58 0 -58 0 0 -70 c0 -40 -4 -70 -10 -70 -6 0 -10 60
-10 160 l0 160 86 0 c81 0 87 -1 115 -29z m707 9 c33 -15 47 -29 62 -62 40
-88 12 -184 -62 -218 -29 -13 -65 -20 -110 -20 l-68 0 0 160 0 160 68 0 c45 0
81 -7 110 -20z m202 -100 c0 -137 9 -162 66 -180 25 -9 43 -9 69 0 54 18 65
49 65 185 0 70 4 115 10 115 6 0 10 -47 10 -121 0 -163 -22 -199 -121 -199
-51 0 -92 21 -107 55 -15 32 -17 265 -2 265 6 0 10 -47 10 -120z m920 110 c0
-6 -27 -10 -60 -10 l-60 0 0 -150 c0 -93 -4 -150 -10 -150 -6 0 -10 57 -10
150 l0 150 -60 0 c-33 0 -60 4 -60 10 0 6 50 10 130 10 80 0 130 -4 130 -10z
m910 -905 c0 -13 -411 -15 -3635 -15 -3224 0 -3635 2 -3635 15 0 13 411 15
3635 15 3224 0 3635 -2 3635 -15z"/>
<path d="M12752 10670 c-96 -59 -94 -258 2 -304 44 -21 64 -20 104 4 89 54 96
231 12 292 -40 29 -80 32 -118 8z"/>
<path d="M10654 10583 c-12 -2 -34 -18 -50 -34 -27 -28 -29 -36 -29 -107 0
-59 5 -85 20 -111 47 -80 132 -99 189 -42 27 27 31 39 34 98 3 56 -1 76 -20
112 -34 66 -86 96 -144 84z"/>
<path d="M13554 10477 c-28 -48 -38 -74 -30 -78 6 -4 35 -10 65 -14 44 -6 53
-5 49 6 -3 8 -11 47 -18 87 -7 39 -16 72 -19 72 -3 0 -25 -33 -47 -73z"/>
<path d="M11197 9445 c-6 -19 -197 -913 -197 -921 0 -2 90 -4 200 -4 145 0
200 3 200 12 0 11 -187 902 -194 923 -1 6 -6 1 -9 -10z"/>
<path d="M13840 9199 l0 -372 113 5 c90 4 122 9 160 28 142 68 228 245 198
408 -23 126 -95 225 -196 274 -54 25 -70 28 -167 28 l-108 0 0 -371z"/>
<path d="M13880 7224 c-33 -28 -33 -36 -2 -103 19 -42 64 -63 104 -49 55 19
66 95 22 147 -34 40 -79 42 -124 5z"/>
<path d="M10322 7224 c-18 -91 -31 -169 -27 -172 3 -3 31 -7 63 -9 71 -5 112
17 143 79 31 60 32 155 3 195 -26 34 -67 59 -114 67 l-36 6 -32 -166z"/>
<path d="M13464 7319 c-40 -45 -16 -251 37 -307 28 -31 72 -29 98 4 41 52 18
242 -35 299 -29 31 -74 33 -100 4z"/>
<path d="M13089 7283 c-28 -7 -53 -65 -45 -106 8 -41 46 -77 83 -77 30 0 83
27 84 43 8 91 -51 159 -122 140z"/>
<path d="M11586 7232 c-2 -4 -8 -83 -12 -175 l-7 -167 52 0 c63 0 103 19 129
62 65 105 22 258 -76 273 -20 4 -47 8 -59 11 -12 2 -24 1 -27 -4z"/>
<path d="M10523 3225 c-45 -19 -73 -69 -73 -130 0 -95 63 -161 144 -151 134
16 171 197 57 273 -39 26 -81 29 -128 8z"/>
<path d="M11281 3222 c-97 -53 -95 -211 4 -263 93 -49 195 22 195 136 0 106
-110 176 -199 127z"/>
<path d="M13299 3217 c-114 -76 -77 -257 57 -273 81 -10 144 56 144 151 0 116
-110 183 -201 122z"/>
<path d="M15059 3217 c-112 -75 -78 -252 52 -273 48 -8 102 18 129 61 27 44
27 128 0 173 -37 61 -122 79 -181 39z"/>
<path d="M9324 3214 c-4 -10 -20 -53 -36 -94 -15 -41 -28 -78 -28 -82 0 -9
134 -11 142 -3 5 5 -58 184 -68 194 -2 2 -7 -5 -10 -15z"/>
<path d="M9888 3136 c-19 -53 -33 -98 -30 -101 9 -9 142 -5 142 4 0 13 -61
174 -70 184 -3 4 -23 -35 -42 -87z"/>
<path d="M11768 3234 c-5 -4 -8 -70 -8 -146 l0 -138 64 0 c49 0 70 5 97 23 80
54 75 198 -9 241 -32 17 -134 31 -144 20z"/>
<path d="M12580 3161 l0 -81 54 0 c72 0 112 15 126 49 12 30 3 68 -23 89 -8 7
-47 16 -86 19 l-71 6 0 -82z"/>
<path d="M12910 3159 l0 -82 77 5 c84 6 113 25 113 75 0 57 -44 83 -142 83
l-48 0 0 -81z"/>
<path d="M13648 3234 c-5 -4 -8 -70 -8 -146 l0 -138 63 0 c45 0 71 6 95 20 83
51 80 200 -6 244 -32 17 -134 31 -144 20z"/>
</g>
</svg>
