<?xml version="1.0" standalone="no"?>
<!DOCTYPE svg PUBLIC "-//W3C//DTD SVG 20010904//EN"
 "http://www.w3.org/TR/2001/REC-SVG-20010904/DTD/svg10.dtd">
<svg version="1.0" xmlns="http://www.w3.org/2000/svg"
 width="2425.000000pt" height="1543.000000pt" viewBox="0 0 2425.000000 1543.000000"
 preserveAspectRatio="xMidYMid meet">

<g transform="translate(0.000000,1543.000000) scale(0.100000,-0.100000)"
fill="#000000" stroke="none">
<path d="M10 7710 l0 -7710 12120 0 12120 0 0 7710 0 7710 -12120 0 -12120 0
0 -7710z m12180 1729 c20 -5 61 -24 93 -43 l57 -34 53 44 c30 24 57 44 61 44
3 0 6 -56 6 -125 0 -72 -4 -125 -10 -125 -5 0 -22 19 -39 43 -36 52 -94 107
-141 134 -153 86 -340 63 -340 -43 0 -23 7 -38 25 -52 23 -18 52 -26 295 -73
131 -25 198 -55 236 -105 26 -34 29 -45 29 -114 0 -100 -27 -145 -112 -187
-51 -25 -69 -28 -148 -28 -105 1 -169 19 -241 70 -27 19 -52 31 -58 26 -6 -4
-32 -24 -57 -44 -25 -20 -51 -37 -58 -37 -8 0 -11 39 -11 130 0 109 2 130 15
130 8 0 15 -4 15 -9 0 -19 87 -113 145 -156 81 -61 172 -89 270 -83 83 6 121
24 131 65 18 71 -35 98 -277 138 -168 28 -219 46 -266 95 -89 92 -62 239 59
313 71 44 163 53 268 26z m2810 -9 c243 -72 329 -356 164 -548 -72 -84 -220
-124 -380 -104 -111 15 -160 38 -232 109 -71 69 -102 141 -102 233 0 249 259
395 550 310z m-5473 -167 l172 -178 1 100 c0 55 -4 115 -10 134 -13 46 -46 79
-87 87 -18 3 -33 12 -33 20 0 11 29 14 150 14 121 0 150 -3 150 -14 0 -8 -15
-17 -33 -20 -42 -8 -82 -50 -96 -101 -6 -24 -11 -141 -11 -287 0 -137 -4 -248
-8 -248 -5 0 -128 121 -275 269 l-267 268 0 -181 c1 -233 18 -287 96 -302 19
-3 34 -12 34 -20 0 -11 -29 -14 -150 -14 -127 0 -150 2 -150 15 0 9 9 15 24
15 36 0 90 42 103 80 8 22 12 108 12 236 l1 202 -36 31 c-20 18 -49 34 -65 38
-16 3 -29 12 -29 19 0 11 32 14 168 14 l167 1 172 -178z m933 162 c0 -11 -11
-15 -43 -15 -32 0 -49 -6 -63 -21 -18 -19 -19 -39 -19 -253 0 -202 2 -235 18
-263 55 -102 231 -77 295 42 22 40 30 335 12 401 -14 49 -48 82 -92 91 -16 3
-28 12 -28 19 0 11 28 14 140 14 109 0 140 -3 140 -13 0 -7 -17 -21 -38 -30
-68 -30 -76 -57 -82 -267 -5 -153 -9 -191 -24 -220 -41 -78 -93 -112 -201
-131 -180 -31 -313 35 -344 171 -6 25 -11 129 -11 231 0 216 -1 219 -78 227
-35 3 -52 9 -52 18 0 12 42 14 235 14 202 0 235 -2 235 -15z m1220 -105 c0
-66 -2 -120 -5 -120 -3 0 -47 42 -98 94 -102 104 -126 116 -235 116 l-63 0 3
-132 3 -133 40 3 c51 4 90 28 120 74 14 21 30 38 35 38 6 0 10 -50 10 -125 0
-139 -6 -149 -53 -90 -33 41 -69 62 -117 67 l-35 3 -3 -147 -3 -148 68 0 c46
0 82 7 111 20 52 24 131 91 174 148 51 68 58 59 58 -78 l0 -120 -370 5 c-203
3 -370 8 -370 13 0 4 19 8 42 10 79 6 78 1 78 298 0 260 0 263 -22 278 -12 9
-39 16 -60 16 -36 0 -54 11 -41 24 3 3 170 6 370 6 l363 0 0 -120z m1710 -25
c0 -165 -9 -181 -50 -88 -44 103 -143 203 -200 203 -20 0 -20 -4 -20 -275 0
-262 1 -276 20 -295 14 -14 33 -20 65 -20 33 0 45 -4 45 -15 0 -13 -33 -15
-235 -15 -202 0 -235 2 -235 15 0 11 12 15 49 15 81 0 81 -1 81 317 0 269 0
273 -20 273 -58 0 -143 -84 -193 -192 -48 -103 -57 -92 -57 70 0 76 3 142 7
145 3 4 172 7 375 7 l368 0 0 -145z m699 135 c100 -11 140 -37 166 -105 35
-90 -5 -180 -94 -212 l-49 -17 61 -122 c61 -123 88 -154 136 -154 12 0 21 -6
21 -15 0 -13 -20 -15 -142 -13 l-143 3 -76 150 c-59 114 -82 151 -98 153 -20
3 -21 0 -21 -117 0 -108 2 -123 20 -141 11 -11 33 -20 50 -20 20 0 30 -5 30
-15 0 -13 -31 -15 -220 -15 -189 0 -220 2 -220 15 0 11 11 15 43 15 84 0 82
-7 82 290 l0 262 -24 19 c-14 11 -39 19 -62 19 -28 0 -39 4 -39 15 0 13 34 15
248 15 136 0 285 -4 331 -10z m-4466 -1169 c31 -16 38 -16 48 -5 23 28 39 16
39 -31 0 -25 -4 -45 -9 -45 -14 0 -33 28 -26 40 4 6 3 10 -2 9 -4 -1 -30 8
-57 20 -53 25 -109 23 -120 -6 -10 -24 11 -41 57 -48 82 -13 146 -35 162 -57
22 -32 19 -71 -10 -102 -21 -22 -32 -26 -82 -26 -40 0 -68 6 -90 19 -31 19
-31 19 -49 0 -27 -30 -34 -23 -34 39 l1 57 24 -27 c43 -49 94 -78 139 -78 50
0 69 11 64 36 -3 19 -40 31 -142 49 -44 7 -96 52 -96 83 0 24 36 71 64 82 35
14 80 11 119 -9z m488 -233 c21 -17 18 -18 -72 -18 -79 1 -91 3 -73 13 17 9
20 17 13 35 -7 19 -16 22 -59 22 -58 0 -66 -16 -24 -49 l27 -21 -68 0 -67 0
30 28 c16 15 51 70 77 122 26 52 52 101 58 108 8 10 26 -15 73 -105 35 -65 73
-126 85 -135z m682 238 c54 -23 80 -59 85 -121 4 -53 3 -56 -37 -96 l-41 -41
-80 4 c-77 3 -81 4 -117 41 -35 34 -38 42 -38 91 0 44 5 60 25 81 48 53 135
70 203 41z m1039 -107 c41 -78 72 -126 88 -135 23 -12 15 -13 -75 -13 -79 0
-96 2 -80 11 11 6 21 12 23 14 2 1 -1 12 -8 23 -9 17 -20 21 -60 21 -56 0 -61
-10 -25 -45 l24 -25 -67 0 -66 0 31 28 c18 15 58 75 88 135 31 59 58 107 60
107 2 0 32 -54 67 -121z m791 110 l37 -1 0 -44 c0 -51 -9 -55 -32 -15 -22 40
-69 64 -102 52 -32 -13 -51 -93 -37 -165 19 -100 109 -103 99 -3 -2 23 -9 33
-28 38 -14 4 20 7 75 7 55 0 89 -3 75 -7 -22 -6 -26 -14 -30 -61 l-5 -55 -102
-3 -101 -4 -37 34 c-58 53 -64 140 -13 195 33 36 56 43 113 37 28 -3 67 -5 88
-5z m2138 1 c19 -5 48 -24 65 -41 25 -27 29 -38 29 -90 0 -57 -2 -63 -37 -95
-36 -32 -42 -34 -109 -34 -116 0 -177 54 -166 147 10 94 106 144 218 113z
m-4302 -15 c38 -19 46 -53 21 -86 -19 -27 -19 -27 1 -44 28 -26 25 -69 -7 -94
-24 -19 -39 -21 -158 -20 -72 1 -120 4 -106 8 25 7 25 8 25 121 0 113 0 114
-25 121 -14 4 30 7 98 8 90 1 131 -3 151 -14z m767 -11 c20 -19 24 -31 19 -52
-6 -26 -25 -47 -49 -55 -16 -5 32 -103 58 -115 17 -9 9 -11 -40 -11 l-60 -1
-29 60 c-16 33 -32 60 -37 60 -4 0 -8 -22 -8 -48 0 -41 4 -51 23 -60 17 -8 2
-11 -73 -10 -53 0 -84 3 -70 7 25 7 25 8 25 121 0 113 0 114 -25 121 -14 4 35
7 108 8 130 1 134 0 158 -25z m1054 6 c20 -20 26 -65 12 -86 -4 -6 -17 -16
-30 -23 l-22 -12 21 -42 c12 -23 31 -50 43 -59 20 -17 20 -18 -36 -18 l-58 0
-30 60 c-33 66 -50 76 -50 31 0 -42 16 -79 37 -84 10 -3 -25 -5 -77 -6 -83 -1
-92 1 -70 12 24 12 25 16 25 117 0 101 -1 105 -25 117 -21 11 -6 13 108 13
119 0 134 -2 152 -20z m800 -32 l0 -51 -34 39 -34 39 26 6 c15 3 -3 6 -40 6
l-68 1 0 -53 c0 -51 0 -52 30 -52 17 0 26 3 20 7 -7 4 -3 13 10 25 20 18 20
18 20 -33 0 -56 -7 -63 -35 -32 -33 36 -45 25 -45 -40 0 -47 3 -60 15 -60 31
0 81 28 107 59 15 17 29 31 32 31 3 0 6 -22 6 -50 l0 -50 -152 0 c-130 0 -149
2 -128 13 24 12 25 16 25 117 0 101 -1 105 -25 117 -21 11 -3 13 123 13 l147
0 0 -52z m272 -15 l68 -67 0 46 c0 39 -4 50 -27 67 l-28 20 65 0 c54 0 61 -2
45 -11 -32 -18 -35 -28 -35 -139 0 -58 -3 -108 -6 -112 -4 -3 -53 42 -110 101
l-103 107 -1 -82 c0 -77 1 -82 28 -102 l27 -20 -65 0 -65 0 28 20 c26 20 27
24 27 113 0 89 -1 92 -27 108 l-28 17 70 1 69 0 68 -67z m498 5 l-1 -63 -18
35 c-10 19 -18 39 -17 45 2 5 1 7 -1 2 -3 -4 -16 2 -30 13 -14 11 -30 20 -34
20 -5 0 -9 -46 -9 -103 0 -104 7 -128 40 -140 8 -3 -28 -6 -80 -6 -83 -1 -92
1 -70 12 24 12 25 16 28 125 1 61 -1 112 -5 112 -19 0 -55 -34 -73 -71 -11
-21 -23 -39 -25 -39 -3 0 -5 27 -5 60 l0 60 150 0 150 0 0 -62z m230 53 c-25
-7 -25 -9 -28 -118 l-3 -111 28 -10 c22 -8 7 -10 -72 -10 -55 0 -89 3 -75 7
25 7 25 8 25 121 0 113 0 114 -25 121 -14 4 20 7 75 7 55 0 89 -3 75 -7z m283
-58 l69 -68 -4 57 c-3 36 0 59 6 63 6 2 2 3 -9 0 -11 -2 -27 0 -35 5 -10 7 4
10 49 10 l64 0 -27 -21 c-25 -20 -26 -24 -26 -130 0 -60 -3 -109 -7 -109 -4 0
-54 46 -110 102 l-103 103 0 -82 c0 -77 1 -82 28 -102 l27 -20 -65 -1 -65 0
28 23 c28 22 28 23 25 119 l-3 97 30 4 c17 2 11 3 -12 2 -22 -1 -47 1 -55 6
-8 5 14 9 57 9 l69 0 69 -67z m-1819 -1604 c14 -33 26 -69 26 -80 0 -22 -102
-94 -123 -86 -8 3 -26 36 -41 72 l-27 68 23 24 c24 26 84 62 104 63 6 0 23
-27 38 -61z m-577 -6 c7 -18 13 -44 13 -58 0 -31 -65 -105 -92 -105 -27 0
-108 81 -108 108 0 24 49 68 105 93 46 21 60 14 82 -38z m280 -45 c29 -29 53
-57 53 -64 0 -6 -24 -37 -54 -70 l-55 -59 -63 62 -63 63 60 60 c33 33 62 60
64 60 3 0 29 -23 58 -52z m-816 -67 c30 -10 82 -32 116 -50 35 -17 85 -36 113
-42 43 -9 50 -14 50 -34 0 -37 -46 -85 -83 -85 -17 0 -81 25 -146 57 -99 49
-125 57 -187 61 -63 4 -74 2 -93 -17 -11 -11 -21 -32 -21 -46 0 -32 23 -88 50
-122 26 -33 25 -46 -3 -79 -32 -36 -68 -27 -103 25 -69 105 -18 242 121 322
60 34 108 37 186 10z m1789 -27 c17 -15 37 -39 46 -55 13 -27 13 -33 -2 -65
-10 -20 -44 -58 -76 -85 -123 -102 -149 -103 -323 -14 -164 84 -174 86 -292
50 -20 -6 -23 -4 -23 18 0 30 7 36 88 77 98 50 123 50 217 -1 172 -91 189 -99
237 -99 29 0 52 6 62 16 19 19 20 66 2 115 -24 67 9 89 64 43z m-1132 -201
c-48 -49 -65 -60 -74 -50 -6 6 -32 35 -58 64 l-48 52 58 61 58 61 63 -63 63
-62 -62 -63z m320 124 l62 -63 -63 -63 -64 -62 -58 66 -58 66 59 60 c32 32 59
59 59 59 0 0 29 -28 63 -63z m-1388 -27 l0 -30 -440 0 -440 0 0 30 0 30 440 0
440 0 0 -30z m3190 0 l0 -30 -440 0 -440 0 0 30 0 30 440 0 440 0 0 -30z
m-1958 -137 l57 -58 -59 -65 -59 -65 -63 62 -63 63 60 60 c33 33 62 60 65 60
3 0 31 -26 62 -57z m-324 -47 c65 -71 67 -78 24 -118 -20 -19 -50 -44 -66 -56
-28 -21 -30 -22 -49 -5 -27 24 -77 93 -77 107 0 11 109 116 121 116 3 0 25
-20 47 -44z m603 -43 c16 -23 29 -48 29 -56 0 -15 -95 -107 -110 -107 -10 0
-85 81 -99 108 -9 18 -3 27 50 77 60 55 62 56 81 38 11 -10 33 -37 49 -60z"/>
<path d="M12380 9365 c-10 -12 -10 -15 4 -15 9 0 16 7 16 15 0 8 -2 15 -4 15
-2 0 -9 -7 -16 -15z"/>
<path d="M11870 9345 c-8 -9 -8 -15 -2 -15 12 0 26 19 19 26 -2 2 -10 -2 -17
-11z"/>
<path d="M12381 9323 c7 -10 15 -20 16 -22 2 -2 3 5 3 17 0 14 -6 22 -16 22
-14 0 -15 -3 -3 -17z"/>
<path d="M11847 9303 c-14 -13 -6 -33 13 -33 13 0 20 7 20 20 0 19 -20 27 -33
13z"/>
<path d="M11830 9230 c0 -17 7 -20 47 -20 45 0 46 0 28 20 -10 11 -31 20 -47
20 -21 0 -28 -5 -28 -20z"/>
<path d="M11842 9173 c3 -16 20 -18 168 -20 l165 -1 -95 18 c-52 10 -128 19
-168 19 -65 1 -73 -1 -70 -16z"/>
<path d="M11870 9121 c0 -18 37 -21 268 -20 209 1 233 2 207 14 -35 16 -475
22 -475 6z"/>
<path d="M11970 9062 c29 -14 75 -18 260 -20 l224 -3 -19 20 c-17 20 -28 21
-259 20 -233 -1 -240 -1 -206 -17z"/>
<path d="M12265 9004 c33 -9 93 -18 134 -21 67 -5 73 -4 68 12 -4 9 -7 19 -7
21 0 2 -57 4 -127 3 l-128 -1 60 -14z"/>
<path d="M12415 8940 c10 -11 26 -20 37 -20 11 0 18 7 18 20 0 16 -7 20 -37
20 -35 0 -36 0 -18 -20z"/>
<path d="M11850 8920 c0 -27 3 -30 32 -30 l32 0 -29 30 c-16 17 -30 30 -32 30
-2 0 -3 -13 -3 -30z"/>
<path d="M12440 8891 c0 -5 -3 -18 -6 -28 -5 -16 -4 -16 10 1 18 23 20 36 6
36 -5 0 -10 -4 -10 -9z"/>
<path d="M11850 8845 l0 -26 30 23 c17 12 30 23 30 25 0 2 -13 3 -30 3 -25 0
-30 -4 -30 -25z"/>
<path d="M14775 9395 c-106 -112 -102 -479 6 -570 37 -31 91 -33 135 -6 63 38
101 178 91 335 -8 123 -30 191 -77 238 -32 32 -44 38 -80 38 -36 0 -48 -6 -75
-35z"/>
<path d="M14670 9403 l-35 -17 29 -4 c20 -2 35 3 50 17 26 26 7 28 -44 4z"/>
<path d="M14962 9400 c7 -11 23 -20 35 -20 33 0 28 16 -8 29 -41 14 -41 14
-27 -9z"/>
<path d="M14580 9345 c-11 -13 -6 -15 38 -15 35 0 52 4 56 15 4 12 -4 15 -38
15 -27 0 -48 -6 -56 -15z"/>
<path d="M14992 9348 c3 -8 26 -14 53 -16 43 -3 47 -1 36 12 -17 20 -95 22
-89 4z"/>
<path d="M14530 9290 c-10 -19 -8 -20 49 -20 55 0 71 8 71 36 0 2 -25 4 -55 4
-44 0 -56 -4 -65 -20z"/>
<path d="M15012 9293 c2 -14 15 -19 61 -21 56 -3 57 -2 45 17 -10 17 -23 21
-61 21 -41 0 -48 -3 -45 -17z"/>
<path d="M14497 9230 c-5 -18 0 -20 58 -20 59 0 75 8 75 36 0 2 -29 4 -64 4
-55 0 -64 -3 -69 -20z"/>
<path d="M15027 9230 c5 -17 14 -20 65 -20 51 0 59 2 54 16 -3 9 -6 18 -6 20
0 2 -27 4 -59 4 -54 0 -59 -2 -54 -20z"/>
<path d="M14480 9170 c0 -18 7 -20 64 -20 55 0 64 3 69 20 5 19 0 20 -64 20
-62 0 -69 -2 -69 -20z"/>
<path d="M15030 9170 c0 -18 7 -20 65 -20 58 0 65 2 65 20 0 18 -7 20 -65 20
-58 0 -65 -2 -65 -20z"/>
<path d="M14480 9115 c0 -12 14 -15 65 -15 51 0 65 3 65 15 0 12 -14 15 -65
15 -51 0 -65 -3 -65 -15z"/>
<path d="M15030 9115 c0 -12 14 -15 70 -15 56 0 70 3 70 15 0 12 -14 15 -70
15 -56 0 -70 -3 -70 -15z"/>
<path d="M14482 9063 c3 -15 16 -19 70 -21 63 -3 66 -2 61 18 -5 17 -13 20
-70 20 -56 0 -64 -2 -61 -17z"/>
<path d="M15037 9073 c-4 -3 -7 -12 -7 -20 0 -9 18 -13 65 -13 58 0 65 2 65
20 0 18 -7 20 -58 20 -32 0 -62 -3 -65 -7z"/>
<path d="M14500 9000 c9 -17 21 -20 71 -20 52 0 60 2 55 16 -3 9 -6 18 -6 20
0 2 -29 4 -65 4 -63 0 -65 -1 -55 -20z"/>
<path d="M15030 9000 c0 -19 5 -21 57 -18 46 2 59 7 61 21 3 15 -5 17 -57 17
-55 0 -61 -2 -61 -20z"/>
<path d="M14530 8940 c9 -16 21 -20 66 -20 47 0 55 3 50 16 -3 9 -6 18 -6 20
0 2 -27 4 -60 4 -58 0 -60 -1 -50 -20z"/>
<path d="M15017 8940 c-5 -18 0 -20 44 -20 38 0 51 4 59 20 10 19 8 20 -43 20
-46 0 -55 -3 -60 -20z"/>
<path d="M14589 8880 c29 -25 96 -28 87 -4 -3 9 -6 18 -6 20 0 2 -24 4 -52 4
l-53 -1 24 -19z"/>
<path d="M14996 8884 c-9 -24 -9 -24 27 -24 21 0 41 8 52 20 18 20 17 20 -27
20 -33 0 -48 -5 -52 -16z"/>
<path d="M14660 8836 c14 -7 36 -17 50 -21 25 -8 25 -8 6 14 -12 13 -31 21
-50 21 l-31 -1 25 -13z"/>
<path d="M14960 8825 c-13 -14 -18 -25 -12 -25 18 0 82 33 82 42 0 18 -48 6
-70 -17z"/>
<path d="M9124 9395 c14 -10 45 -15 99 -15 70 0 78 2 67 15 -9 11 -34 15 -99
15 -78 -1 -84 -2 -67 -15z"/>
<path d="M9670 9400 c20 -13 47 -13 55 0 4 6 -9 10 -32 10 -28 0 -34 -3 -23
-10z"/>
<path d="M9180 9345 c9 -11 34 -15 92 -15 70 0 79 2 68 15 -9 11 -34 15 -92
15 -70 0 -79 -2 -68 -15z"/>
<path d="M9235 9290 c15 -17 31 -20 98 -20 79 0 80 0 62 20 -15 17 -31 20 -98
20 -79 0 -80 0 -62 -20z"/>
<path d="M9290 9230 c9 -18 21 -20 97 -20 85 0 86 0 68 20 -15 17 -31 20 -97
20 -76 0 -78 -1 -68 -20z"/>
<path d="M9345 9170 c15 -17 31 -20 103 -20 84 0 85 0 67 20 -15 17 -31 20
-103 20 -84 0 -85 0 -67 -20z"/>
<path d="M9400 9115 c9 -11 34 -15 97 -15 75 0 84 2 73 15 -9 11 -34 15 -97
15 -75 0 -84 -2 -73 -15z"/>
<path d="M9450 9072 c0 -23 30 -32 110 -32 l85 1 -24 19 c-18 16 -38 20 -97
20 -41 0 -74 -4 -74 -8z"/>
<path d="M9515 9000 c15 -17 31 -20 103 -20 84 0 85 0 67 20 -15 17 -31 20
-103 20 -84 0 -85 0 -67 -20z"/>
<path d="M9575 8940 c14 -16 31 -20 77 -20 51 0 58 2 58 20 0 18 -7 20 -77 20
-75 0 -76 0 -58 -20z"/>
<path d="M9635 8880 c23 -25 68 -23 73 3 3 14 -4 17 -44 17 -47 0 -47 0 -29
-20z"/>
<path d="M9146 8863 c-6 -14 -5 -15 5 -6 7 7 10 15 7 18 -3 3 -9 -2 -12 -12z"/>
<path d="M9685 8830 c20 -22 31 -20 22 5 -4 8 -14 15 -23 15 -16 0 -16 -2 1
-20z"/>
<path d="M9120 8830 c-11 -7 -5 -10 23 -10 23 0 36 4 32 10 -8 13 -35 13 -55
0z"/>
<path d="M10130 9395 c8 -10 31 -15 70 -15 39 0 62 5 70 15 11 13 2 15 -70 15
-72 0 -81 -2 -70 -15z"/>
<path d="M10648 9403 c12 -2 30 -2 40 0 9 3 -1 5 -23 4 -22 0 -30 -2 -17 -4z"/>
<path d="M10666 9365 c4 -8 8 -15 10 -15 2 0 4 7 4 15 0 8 -4 15 -10 15 -5 0
-7 -7 -4 -15z"/>
<path d="M10150 9345 c0 -12 13 -15 55 -15 42 0 55 3 55 15 0 12 -13 15 -55
15 -42 0 -55 -3 -55 -15z"/>
<path d="M10150 9290 c0 -18 7 -20 55 -20 48 0 55 2 55 20 0 18 -7 20 -55 20
-48 0 -55 -2 -55 -20z"/>
<path d="M10150 9230 c0 -18 7 -20 55 -20 48 0 55 2 55 20 0 18 -7 20 -55 20
-48 0 -55 -2 -55 -20z"/>
<path d="M10150 9170 c0 -18 7 -20 55 -20 48 0 55 2 55 20 0 18 -7 20 -55 20
-48 0 -55 -2 -55 -20z"/>
<path d="M10150 9115 c0 -12 13 -15 55 -15 42 0 55 3 55 15 0 12 -13 15 -55
15 -42 0 -55 -3 -55 -15z"/>
<path d="M10150 9060 c0 -18 7 -20 55 -20 48 0 55 2 55 20 0 18 -7 20 -55 20
-48 0 -55 -2 -55 -20z"/>
<path d="M10150 9000 c0 -18 7 -20 55 -20 48 0 55 2 55 20 0 18 -7 20 -55 20
-48 0 -55 -2 -55 -20z"/>
<path d="M10157 8940 c4 -17 14 -20 54 -20 42 0 49 3 49 20 0 18 -7 20 -54 20
-49 0 -54 -2 -49 -20z"/>
<path d="M10180 8892 c0 -19 27 -32 63 -32 32 0 38 3 33 16 -3 9 -6 18 -6 20
0 2 -20 4 -45 4 -25 0 -45 -4 -45 -8z"/>
<path d="M10230 8841 c0 -9 71 -41 92 -41 6 0 1 11 -12 25 -23 24 -80 36 -80
16z"/>
<path d="M11080 9395 c8 -10 31 -15 71 -15 46 0 59 3 59 15 0 12 -15 15 -71
15 -62 0 -70 -2 -59 -15z"/>
<path d="M11506 9395 c26 -20 114 -20 114 0 0 12 -14 15 -67 15 -61 0 -65 -1
-47 -15z"/>
<path d="M11100 9350 c0 -18 7 -20 55 -20 48 0 55 2 55 20 0 18 -7 20 -55 20
-48 0 -55 -2 -55 -20z"/>
<path d="M11582 9331 c29 -38 38 -38 38 -1 0 27 -3 30 -31 30 l-31 0 24 -29z"/>
<path d="M11100 9290 c0 -18 7 -20 55 -20 48 0 55 2 55 20 0 18 -7 20 -55 20
-48 0 -55 -2 -55 -20z"/>
<path d="M11100 9230 c0 -18 7 -20 55 -20 48 0 55 2 55 20 0 18 -7 20 -55 20
-48 0 -55 -2 -55 -20z"/>
<path d="M11100 9170 c0 -18 7 -20 55 -20 48 0 55 2 55 20 0 18 -7 20 -55 20
-48 0 -55 -2 -55 -20z"/>
<path d="M11415 9160 c-18 -19 -17 -20 3 -20 15 0 22 6 22 20 0 11 -2 20 -3
20 -2 0 -12 -9 -22 -20z"/>
<path d="M11100 9115 c0 -12 13 -15 55 -15 42 0 55 3 55 15 0 12 -13 15 -55
15 -42 0 -55 -3 -55 -15z"/>
<path d="M11391 9117 c2 -1 14 -11 27 -21 22 -19 22 -19 22 2 0 17 -6 22 -27
22 -14 0 -24 -1 -22 -3z"/>
<path d="M11100 9060 c0 -18 7 -20 55 -20 48 0 55 2 55 20 0 18 -7 20 -55 20
-48 0 -55 -2 -55 -20z"/>
<path d="M11100 9000 c0 -18 7 -20 55 -20 48 0 55 2 55 20 0 18 -7 20 -55 20
-48 0 -55 -2 -55 -20z"/>
<path d="M11100 8940 c0 -18 7 -20 55 -20 48 0 55 2 55 20 0 18 -7 20 -55 20
-48 0 -55 -2 -55 -20z"/>
<path d="M11585 8900 l-29 -30 32 0 c29 0 32 3 32 30 0 17 -1 30 -3 30 -2 0
-16 -13 -32 -30z"/>
<path d="M11100 8880 c0 -18 7 -20 55 -20 48 0 55 2 55 20 0 18 -7 20 -55 20
-48 0 -55 -2 -55 -20z"/>
<path d="M11086 8835 c-4 -12 6 -15 59 -15 51 0 65 3 65 15 0 12 -13 15 -59
15 -43 0 -60 -4 -65 -15z"/>
<path d="M11500 8835 c-23 -13 -20 -14 48 -15 57 0 72 3 72 15 0 20 -85 20
-120 0z"/>
<path d="M12670 9395 c0 -10 10 -15 29 -15 16 0 34 7 41 15 11 13 7 15 -29 15
-30 0 -41 -4 -41 -15z"/>
<path d="M12940 9395 c0 -12 13 -15 55 -15 42 0 55 3 55 15 0 12 -13 15 -55
15 -42 0 -55 -3 -55 -15z"/>
<path d="M13230 9395 c7 -9 29 -15 51 -15 28 0 39 4 39 15 0 11 -12 15 -51 15
-45 0 -50 -2 -39 -15z"/>
<path d="M12940 9350 c0 -18 7 -20 55 -20 48 0 55 2 55 20 0 18 -7 20 -55 20
-48 0 -55 -2 -55 -20z"/>
<path d="M12670 9333 c0 -26 1 -26 15 -7 19 25 19 34 0 34 -10 0 -15 -10 -15
-27z"/>
<path d="M13290 9330 c12 -16 23 -30 26 -30 2 0 4 14 4 30 0 26 -4 30 -26 30
l-25 0 21 -30z"/>
<path d="M12940 9290 c0 -18 7 -20 55 -20 48 0 55 2 55 20 0 18 -7 20 -55 20
-48 0 -55 -2 -55 -20z"/>
<path d="M12940 9230 c0 -18 7 -20 55 -20 48 0 55 2 55 20 0 18 -7 20 -55 20
-48 0 -55 -2 -55 -20z"/>
<path d="M12940 9170 c0 -18 7 -20 55 -20 48 0 55 2 55 20 0 18 -7 20 -55 20
-48 0 -55 -2 -55 -20z"/>
<path d="M12940 9115 c0 -12 13 -15 55 -15 42 0 55 3 55 15 0 12 -13 15 -55
15 -42 0 -55 -3 -55 -15z"/>
<path d="M12940 9060 c0 -18 7 -20 55 -20 48 0 55 2 55 20 0 18 -7 20 -55 20
-48 0 -55 -2 -55 -20z"/>
<path d="M12940 9000 c0 -18 7 -20 55 -20 48 0 55 2 55 20 0 18 -7 20 -55 20
-48 0 -55 -2 -55 -20z"/>
<path d="M12940 8940 c0 -18 7 -20 55 -20 48 0 55 2 55 20 0 18 -7 20 -55 20
-48 0 -55 -2 -55 -20z"/>
<path d="M12940 8880 c0 -18 7 -20 55 -20 48 0 55 2 55 20 0 18 -7 20 -55 20
-48 0 -55 -2 -55 -20z"/>
<path d="M12920 8835 c-11 -13 -4 -15 65 -15 57 0 76 3 73 13 -7 19 -122 22
-138 2z"/>
<path d="M13650 9395 c16 -20 121 -17 128 3 3 9 -15 12 -68 12 -64 0 -71 -2
-60 -15z"/>
<path d="M13850 9265 l0 -145 43 0 c96 0 152 62 143 158 -2 30 -12 65 -21 79
-21 31 -72 53 -125 53 l-40 0 0 -145z"/>
<path d="M14015 9396 c24 -18 116 -23 98 -5 -7 7 -36 14 -65 16 -50 5 -52 4
-33 -11z"/>
<path d="M13660 9345 c0 -12 13 -15 60 -15 47 0 60 3 60 15 0 12 -13 15 -60
15 -47 0 -60 -3 -60 -15z"/>
<path d="M14050 9345 c0 -12 13 -15 61 -15 81 0 77 24 -4 28 -46 2 -57 0 -57
-13z"/>
<path d="M13667 9304 c-4 -4 -7 -13 -7 -21 0 -9 17 -13 61 -13 52 0 60 2 57
18 -2 13 -15 18 -53 20 -28 2 -54 0 -58 -4z"/>
<path d="M14068 9304 c-4 -3 -4 -12 -1 -20 4 -10 23 -14 65 -14 51 0 59 2 56
18 -2 13 -15 18 -58 20 -31 2 -59 0 -62 -4z"/>
<path d="M13660 9230 c0 -18 7 -20 60 -20 53 0 60 2 60 20 0 18 -7 20 -60 20
-53 0 -60 -2 -60 -20z"/>
<path d="M14066 9234 c-3 -9 -6 -18 -6 -20 0 -2 27 -4 59 -4 55 0 71 8 71 36
0 2 -27 4 -59 4 -44 0 -60 -4 -65 -16z"/>
<path d="M13660 9170 c0 -18 7 -20 60 -20 53 0 60 2 60 20 0 18 -7 20 -60 20
-53 0 -60 -2 -60 -20z"/>
<path d="M14046 9174 c-3 -9 -6 -18 -6 -20 0 -2 22 -4 48 -4 36 0 54 5 67 20
18 20 17 20 -42 20 -46 0 -62 -4 -67 -16z"/>
<path d="M13660 9115 c0 -12 13 -15 60 -15 47 0 60 3 60 15 0 12 -13 15 -60
15 -47 0 -60 -3 -60 -15z"/>
<path d="M13990 9114 c-25 -14 -24 -14 15 -13 22 0 54 6 70 14 l30 13 -45 0
c-25 0 -56 -6 -70 -14z"/>
<path d="M13667 9074 c-4 -4 -7 -13 -7 -21 0 -9 17 -13 61 -13 52 0 60 2 57
18 -2 13 -15 18 -53 20 -28 2 -54 0 -58 -4z"/>
<path d="M13942 9063 c2 -14 15 -19 61 -21 56 -3 58 -2 47 17 -9 17 -21 21
-61 21 -43 0 -50 -3 -47 -17z"/>
<path d="M13660 9000 c0 -18 7 -20 60 -20 53 0 60 2 60 20 0 18 -7 20 -60 20
-53 0 -60 -2 -60 -20z"/>
<path d="M13970 9000 c9 -16 21 -20 66 -20 52 0 54 1 44 20 -9 16 -21 20 -66
20 -52 0 -54 -1 -44 -20z"/>
<path d="M13660 8940 c0 -18 7 -20 60 -20 53 0 60 2 60 20 0 18 -7 20 -60 20
-53 0 -60 -2 -60 -20z"/>
<path d="M14000 8940 c9 -16 21 -20 61 -20 43 0 50 3 45 16 -3 9 -6 18 -6 20
0 2 -25 4 -55 4 -53 0 -55 -1 -45 -20z"/>
<path d="M13660 8880 c0 -18 7 -20 60 -20 53 0 60 2 60 20 0 18 -7 20 -60 20
-53 0 -60 -2 -60 -20z"/>
<path d="M14030 8880 c9 -16 21 -20 61 -20 43 0 50 3 45 16 -3 9 -6 18 -6 20
0 2 -25 4 -55 4 -53 0 -55 -1 -45 -20z"/>
<path d="M13650 8835 c-11 -13 -3 -15 63 -15 64 0 75 2 71 15 -5 11 -22 15
-64 15 -39 0 -62 -5 -70 -15z"/>
<path d="M14052 8838 c3 -8 25 -14 57 -16 40 -2 52 0 49 10 -3 8 -25 14 -57
16 -40 2 -52 0 -49 -10z"/>
<path d="M9455 8190 c-3 -5 3 -10 15 -10 12 0 18 5 15 10 -3 6 -10 10 -15 10
-5 0 -12 -4 -15 -10z"/>
<path d="M9478 8163 c12 -2 32 -2 45 0 12 2 2 4 -23 4 -25 0 -35 -2 -22 -4z"/>
<path d="M9513 8143 c26 -2 68 -2 95 0 26 2 4 3 -48 3 -52 0 -74 -1 -47 -3z"/>
<path d="M9520 8120 c20 -13 170 -13 170 0 0 6 -37 10 -92 10 -64 0 -88 -3
-78 -10z"/>
<path d="M9663 8093 c9 -2 25 -2 35 0 9 3 1 5 -18 5 -19 0 -27 -2 -17 -5z"/>
<path d="M9460 8060 c0 -5 5 -10 11 -10 5 0 7 5 4 10 -3 6 -8 10 -11 10 -2 0
-4 -4 -4 -10z"/>
<path d="M9935 8210 c-3 -5 1 -10 9 -10 9 0 16 5 16 10 0 6 -4 10 -9 10 -6 0
-13 -4 -16 -10z"/>
<path d="M9943 8183 c9 -2 23 -2 30 0 6 3 -1 5 -18 5 -16 0 -22 -2 -12 -5z"/>
<path d="M9897 8135 c-9 -20 -17 -38 -17 -40 0 -3 18 -5 40 -5 l40 0 -20 40
c-11 22 -22 40 -23 40 -2 0 -11 -16 -20 -35z"/>
<path d="M9953 8163 c9 -2 23 -2 30 0 6 3 -1 5 -18 5 -16 0 -22 -2 -12 -5z"/>
<path d="M9957 8130 c4 -13 14 -20 30 -20 19 0 24 4 19 16 -3 9 -6 18 -6 20 0
2 -11 4 -24 4 -19 0 -23 -4 -19 -20z"/>
<path d="M9983 8093 c9 -2 23 -2 30 0 6 3 -1 5 -18 5 -16 0 -22 -2 -12 -5z"/>
<path d="M9992 8060 c7 -11 23 -20 36 -20 20 0 21 3 12 20 -6 12 -21 20 -35
20 -23 0 -24 -2 -13 -20z"/>
<path d="M10013 8023 c9 -2 25 -2 35 0 9 3 1 5 -18 5 -19 0 -27 -2 -17 -5z"/>
<path d="M10698 8258 c-38 -31 -50 -140 -20 -198 14 -28 23 -35 47 -35 43 0
56 32 53 126 -2 59 -8 82 -22 98 -22 24 -36 26 -58 9z"/>
<path d="M10618 8233 c6 -2 18 -2 25 0 6 3 1 5 -13 5 -14 0 -19 -2 -12 -5z"/>
<path d="M10788 8233 c7 -3 16 -2 19 1 4 3 -2 6 -13 5 -11 0 -14 -3 -6 -6z"/>
<path d="M10608 8213 c6 -2 18 -2 25 0 6 3 1 5 -13 5 -14 0 -19 -2 -12 -5z"/>
<path d="M10798 8213 c6 -2 18 -2 25 0 6 3 1 5 -13 5 -14 0 -19 -2 -12 -5z"/>
<path d="M10585 8190 c-4 -6 5 -10 19 -10 14 0 26 5 26 10 0 6 -9 10 -19 10
-11 0 -23 -4 -26 -10z"/>
<path d="M10790 8190 c0 -5 12 -10 26 -10 14 0 23 4 19 10 -3 6 -15 10 -26 10
-10 0 -19 -4 -19 -10z"/>
<path d="M10593 8163 c9 -2 23 -2 30 0 6 3 -1 5 -18 5 -16 0 -22 -2 -12 -5z"/>
<path d="M10808 8163 c6 -2 18 -2 25 0 6 3 1 5 -13 5 -14 0 -19 -2 -12 -5z"/>
<path d="M10583 8143 c9 -2 23 -2 30 0 6 3 -1 5 -18 5 -16 0 -22 -2 -12 -5z"/>
<path d="M10813 8143 c9 -2 23 -2 30 0 6 3 -1 5 -18 5 -16 0 -22 -2 -12 -5z"/>
<path d="M10580 8120 c0 -5 12 -10 26 -10 14 0 23 4 19 10 -3 6 -15 10 -26 10
-10 0 -19 -4 -19 -10z"/>
<path d="M10800 8120 c0 -5 9 -10 20 -10 11 0 20 5 20 10 0 6 -9 10 -20 10
-11 0 -20 -4 -20 -10z"/>
<path d="M10593 8093 c9 -2 23 -2 30 0 6 3 -1 5 -18 5 -16 0 -22 -2 -12 -5z"/>
<path d="M10803 8093 c9 -2 23 -2 30 0 6 3 -1 5 -18 5 -16 0 -22 -2 -12 -5z"/>
<path d="M10603 8073 c9 -2 23 -2 30 0 6 3 -1 5 -18 5 -16 0 -22 -2 -12 -5z"/>
<path d="M10798 8073 c6 -2 18 -2 25 0 6 3 1 5 -13 5 -14 0 -19 -2 -12 -5z"/>
<path d="M10615 8050 c3 -5 13 -10 21 -10 8 0 14 5 14 10 0 6 -9 10 -21 10
-11 0 -17 -4 -14 -10z"/>
<path d="M10780 8050 c0 -5 6 -10 14 -10 8 0 18 5 21 10 3 6 -3 10 -14 10 -12
0 -21 -4 -21 -10z"/>
<path d="M11740 8210 c0 -5 7 -10 16 -10 8 0 12 5 9 10 -3 6 -10 10 -16 10 -5
0 -9 -4 -9 -10z"/>
<path d="M11743 8183 c9 -2 23 -2 30 0 6 3 -1 5 -18 5 -16 0 -22 -2 -12 -5z"/>
<path d="M11701 8132 l-21 -42 40 0 c45 0 46 2 21 49 l-19 35 -21 -42z"/>
<path d="M11753 8163 c9 -2 23 -2 30 0 6 3 -1 5 -18 5 -16 0 -22 -2 -12 -5z"/>
<path d="M11762 8130 c7 -11 23 -20 35 -20 21 0 22 2 11 20 -7 11 -23 20 -35
20 -21 0 -22 -2 -11 -20z"/>
<path d="M11793 8093 c9 -2 23 -2 30 0 6 3 -1 5 -18 5 -16 0 -22 -2 -12 -5z"/>
<path d="M11794 8064 c3 -9 6 -18 6 -20 0 -2 12 -4 26 -4 20 0 25 4 20 16 -3
9 -6 18 -6 20 0 2 -12 4 -26 4 -20 0 -25 -4 -20 -16z"/>
<path d="M11813 8023 c9 -2 25 -2 35 0 9 3 1 5 -18 5 -19 0 -27 -2 -17 -5z"/>
<path d="M12438 8233 c6 -2 18 -2 25 0 6 3 1 5 -13 5 -14 0 -19 -2 -12 -5z"/>
<path d="M12428 8213 c6 -2 18 -2 25 0 6 3 1 5 -13 5 -14 0 -19 -2 -12 -5z"/>
<path d="M12410 8190 c0 -5 9 -10 20 -10 11 0 20 5 20 10 0 6 -9 10 -20 10
-11 0 -20 -4 -20 -10z"/>
<path d="M12413 8163 c9 -2 23 -2 30 0 6 3 -1 5 -18 5 -16 0 -22 -2 -12 -5z"/>
<path d="M12413 8143 c9 -2 23 -2 30 0 6 3 -1 5 -18 5 -16 0 -22 -2 -12 -5z"/>
<path d="M12404 8114 c3 -9 6 -18 6 -20 0 -2 9 -4 19 -4 14 0 19 6 18 20 -1
14 -8 20 -25 20 -18 0 -23 -4 -18 -16z"/>
<path d="M12603 8123 c9 -2 25 -2 35 0 9 3 1 5 -18 5 -19 0 -27 -2 -17 -5z"/>
<path d="M12613 8103 c9 -2 23 -2 30 0 6 3 -1 5 -18 5 -16 0 -22 -2 -12 -5z"/>
<path d="M12600 8070 c0 -14 7 -20 23 -20 16 0 23 6 23 20 0 14 -7 20 -23 20
-16 0 -23 -6 -23 -20z"/>
<path d="M12428 8073 c6 -2 18 -2 25 0 6 3 1 5 -13 5 -14 0 -19 -2 -12 -5z"/>
<path d="M12440 8050 c20 -13 33 -13 25 0 -3 6 -14 10 -23 10 -15 0 -15 -2 -2
-10z"/>
<path d="M12598 8033 c7 -3 16 -2 19 1 4 3 -2 6 -13 5 -11 0 -14 -3 -6 -6z"/>
<path d="M14678 8259 c-34 -19 -49 -125 -26 -190 14 -43 24 -49 73 -47 22 1
34 3 28 5 -8 3 -9 12 -1 34 16 47 6 164 -16 188 -21 23 -33 25 -58 10z"/>
<path d="M14598 8233 c6 -2 18 -2 25 0 6 3 1 5 -13 5 -14 0 -19 -2 -12 -5z"/>
<path d="M14768 8233 c7 -3 16 -2 19 1 4 3 -2 6 -13 5 -11 0 -14 -3 -6 -6z"/>
<path d="M14588 8213 c6 -2 18 -2 25 0 6 3 1 5 -13 5 -14 0 -19 -2 -12 -5z"/>
<path d="M14778 8213 c7 -3 16 -2 19 1 4 3 -2 6 -13 5 -11 0 -14 -3 -6 -6z"/>
<path d="M14565 8190 c-4 -6 5 -10 19 -10 14 0 26 5 26 10 0 6 -9 10 -19 10
-11 0 -23 -4 -26 -10z"/>
<path d="M14770 8190 c0 -5 12 -10 26 -10 14 0 23 4 19 10 -3 6 -15 10 -26 10
-10 0 -19 -4 -19 -10z"/>
<path d="M14563 8163 c9 -2 23 -2 30 0 6 3 -1 5 -18 5 -16 0 -22 -2 -12 -5z"/>
<path d="M14783 8163 c9 -2 23 -2 30 0 6 3 -1 5 -18 5 -16 0 -22 -2 -12 -5z"/>
<path d="M14563 8143 c9 -2 23 -2 30 0 6 3 -1 5 -18 5 -16 0 -22 -2 -12 -5z"/>
<path d="M14793 8143 c9 -2 23 -2 30 0 6 3 -1 5 -18 5 -16 0 -22 -2 -12 -5z"/>
<path d="M14560 8120 c0 -5 12 -10 26 -10 14 0 23 4 19 10 -3 6 -15 10 -26 10
-10 0 -19 -4 -19 -10z"/>
<path d="M14775 8120 c-4 -6 5 -10 19 -10 14 0 26 5 26 10 0 6 -9 10 -19 10
-11 0 -23 -4 -26 -10z"/>
<path d="M14573 8093 c9 -2 23 -2 30 0 6 3 -1 5 -18 5 -16 0 -22 -2 -12 -5z"/>
<path d="M14783 8093 c9 -2 23 -2 30 0 6 3 -1 5 -18 5 -16 0 -22 -2 -12 -5z"/>
<path d="M14583 8073 c9 -2 23 -2 30 0 6 3 -1 5 -18 5 -16 0 -22 -2 -12 -5z"/>
<path d="M14778 8073 c6 -2 18 -2 25 0 6 3 1 5 -13 5 -14 0 -19 -2 -12 -5z"/>
<path d="M14595 8050 c3 -5 13 -10 21 -10 8 0 14 5 14 10 0 6 -9 10 -21 10
-11 0 -17 -4 -14 -10z"/>
<path d="M14760 8050 c0 -13 11 -13 30 0 12 8 11 10 -7 10 -13 0 -23 -4 -23
-10z"/>
<path d="M10263 8253 c9 -2 23 -2 30 0 6 3 -1 5 -18 5 -16 0 -22 -2 -12 -5z"/>
<path d="M10330 8205 c0 -52 2 -55 24 -55 13 0 30 -2 38 -3 7 -2 10 -2 7 0 -4
2 -4 22 -1 45 5 44 -12 68 -50 68 -15 0 -18 -9 -18 -55z"/>
<path d="M10268 8233 c6 -2 18 -2 25 0 6 3 1 5 -13 5 -14 0 -19 -2 -12 -5z"/>
<path d="M10418 8233 c6 -2 18 -2 25 0 6 3 1 5 -13 5 -14 0 -19 -2 -12 -5z"/>
<path d="M10260 8210 c0 -5 9 -10 20 -10 11 0 20 5 20 10 0 6 -9 10 -20 10
-11 0 -20 -4 -20 -10z"/>
<path d="M10420 8210 c0 -5 9 -10 20 -10 11 0 20 5 20 10 0 6 -9 10 -20 10
-11 0 -20 -4 -20 -10z"/>
<path d="M10268 8183 c6 -2 18 -2 25 0 6 3 1 5 -13 5 -14 0 -19 -2 -12 -5z"/>
<path d="M10428 8183 c6 -2 18 -2 25 0 6 3 1 5 -13 5 -14 0 -19 -2 -12 -5z"/>
<path d="M10268 8163 c6 -2 18 -2 25 0 6 3 1 5 -13 5 -14 0 -19 -2 -12 -5z"/>
<path d="M10418 8163 c6 -2 18 -2 25 0 6 3 1 5 -13 5 -14 0 -19 -2 -12 -5z"/>
<path d="M10260 8140 c0 -5 9 -10 20 -10 11 0 20 5 20 10 0 6 -9 10 -20 10
-11 0 -20 -4 -20 -10z"/>
<path d="M10330 8075 c0 -41 4 -55 14 -55 46 0 73 41 56 85 -7 19 -17 25 -40
25 -30 0 -30 0 -30 -55z"/>
<path d="M10268 8113 c6 -2 18 -2 25 0 6 3 1 5 -13 5 -14 0 -19 -2 -12 -5z"/>
<path d="M10418 8113 c6 -2 18 -2 25 0 6 3 1 5 -13 5 -14 0 -19 -2 -12 -5z"/>
<path d="M10268 8093 c6 -2 18 -2 25 0 6 3 1 5 -13 5 -14 0 -19 -2 -12 -5z"/>
<path d="M10428 8093 c6 -2 18 -2 25 0 6 3 1 5 -13 5 -14 0 -19 -2 -12 -5z"/>
<path d="M10260 8060 c0 -13 7 -20 20 -20 13 0 20 7 20 20 0 13 -7 20 -20 20
-13 0 -20 -7 -20 -20z"/>
<path d="M10417 8060 c-4 -16 0 -20 18 -20 14 0 25 7 28 20 4 16 0 20 -18 20
-14 0 -25 -7 -28 -20z"/>
<path d="M10263 8023 c9 -2 23 -2 30 0 6 3 -1 5 -18 5 -16 0 -22 -2 -12 -5z"/>
<path d="M11013 8253 c9 -2 23 -2 30 0 6 3 -1 5 -18 5 -16 0 -22 -2 -12 -5z"/>
<path d="M11080 8198 c0 -57 1 -59 23 -52 40 12 49 26 44 66 -4 29 -1 38 12
40 9 2 -5 5 -31 5 l-48 1 0 -60z"/>
<path d="M11013 8233 c9 -2 23 -2 30 0 6 3 -1 5 -18 5 -16 0 -22 -2 -12 -5z"/>
<path d="M11168 8233 c6 -2 18 -2 25 0 6 3 1 5 -13 5 -14 0 -19 -2 -12 -5z"/>
<path d="M11010 8210 c0 -5 9 -10 20 -10 11 0 20 5 20 10 0 6 -9 10 -20 10
-11 0 -20 -4 -20 -10z"/>
<path d="M11170 8210 c0 -5 9 -10 20 -10 11 0 20 5 20 10 0 6 -9 10 -20 10
-11 0 -20 -4 -20 -10z"/>
<path d="M11013 8183 c9 -2 23 -2 30 0 6 3 -1 5 -18 5 -16 0 -22 -2 -12 -5z"/>
<path d="M11173 8183 c9 -2 23 -2 30 0 6 3 -1 5 -18 5 -16 0 -22 -2 -12 -5z"/>
<path d="M11013 8163 c9 -2 23 -2 30 0 6 3 -1 5 -18 5 -16 0 -22 -2 -12 -5z"/>
<path d="M11168 8163 c6 -2 18 -2 25 0 6 3 1 5 -13 5 -14 0 -19 -2 -12 -5z"/>
<path d="M11004 8130 c0 -14 7 -20 23 -20 16 0 23 6 23 20 0 14 -7 20 -23 20
-16 0 -23 -6 -23 -20z"/>
<path d="M11132 8138 c-18 -18 -15 -28 9 -28 12 0 18 4 13 11 -3 6 0 15 7 20
12 7 11 9 -1 9 -9 0 -21 -5 -28 -12z"/>
<path d="M11013 8093 c9 -2 23 -2 30 0 6 3 -1 5 -18 5 -16 0 -22 -2 -12 -5z"/>
<path d="M11138 8093 c6 -2 18 -2 25 0 6 3 1 5 -13 5 -14 0 -19 -2 -12 -5z"/>
<path d="M11004 8060 c0 -14 7 -20 23 -20 16 0 23 6 23 20 0 14 -7 20 -23 20
-16 0 -23 -6 -23 -20z"/>
<path d="M11144 8064 c3 -9 6 -18 6 -20 0 -2 9 -4 21 -4 15 0 19 4 15 16 -3 9
-6 18 -6 20 0 2 -9 4 -21 4 -15 0 -19 -4 -15 -16z"/>
<path d="M11013 8023 c9 -2 23 -2 30 0 6 3 -1 5 -18 5 -16 0 -22 -2 -12 -5z"/>
<path d="M11168 8023 c6 -2 18 -2 25 0 6 3 1 5 -13 5 -14 0 -19 -2 -12 -5z"/>
<path d="M12063 8253 c9 -2 23 -2 30 0 6 3 -1 5 -18 5 -16 0 -22 -2 -12 -5z"/>
<path d="M12132 8203 c3 -55 4 -58 28 -55 28 3 50 27 50 54 0 24 -35 58 -60
58 -19 0 -21 -5 -18 -57z"/>
<path d="M12208 8253 c7 -3 16 -2 19 1 4 3 -2 6 -13 5 -11 0 -14 -3 -6 -6z"/>
<path d="M12068 8233 c6 -2 18 -2 25 0 6 3 1 5 -13 5 -14 0 -19 -2 -12 -5z"/>
<path d="M12223 8233 c9 -2 23 -2 30 0 6 3 -1 5 -18 5 -16 0 -22 -2 -12 -5z"/>
<path d="M12060 8210 c0 -5 9 -10 20 -10 11 0 20 5 20 10 0 6 -9 10 -20 10
-11 0 -20 -4 -20 -10z"/>
<path d="M12220 8210 c0 -5 11 -10 25 -10 14 0 25 5 25 10 0 6 -11 10 -25 10
-14 0 -25 -4 -25 -10z"/>
<path d="M12068 8183 c6 -2 18 -2 25 0 6 3 1 5 -13 5 -14 0 -19 -2 -12 -5z"/>
<path d="M12233 8183 c9 -2 23 -2 30 0 6 3 -1 5 -18 5 -16 0 -22 -2 -12 -5z"/>
<path d="M12068 8163 c6 -2 18 -2 25 0 6 3 1 5 -13 5 -14 0 -19 -2 -12 -5z"/>
<path d="M12223 8163 c9 -2 23 -2 30 0 6 3 -1 5 -18 5 -16 0 -22 -2 -12 -5z"/>
<path d="M12060 8130 c0 -13 7 -20 20 -20 13 0 20 7 20 20 0 13 -7 20 -20 20
-13 0 -20 -7 -20 -20z"/>
<path d="M12188 8136 c-23 -17 -23 -26 2 -26 11 0 20 6 20 14 0 8 6 17 13 19
8 4 7 6 -3 6 -8 0 -23 -6 -32 -13z"/>
<path d="M12068 8093 c6 -2 18 -2 25 0 6 3 1 5 -13 5 -14 0 -19 -2 -12 -5z"/>
<path d="M12188 8093 c6 -2 18 -2 25 0 6 3 1 5 -13 5 -14 0 -19 -2 -12 -5z"/>
<path d="M12060 8060 c0 -13 7 -20 20 -20 13 0 20 7 20 20 0 13 -7 20 -20 20
-13 0 -20 -7 -20 -20z"/>
<path d="M12202 8060 c7 -11 21 -20 31 -20 15 0 16 3 7 20 -6 11 -20 20 -30
20 -18 0 -19 -3 -8 -20z"/>
<path d="M12073 8023 c9 -2 23 -2 30 0 6 3 -1 5 -18 5 -16 0 -22 -2 -12 -5z"/>
<path d="M12228 8023 c7 -3 16 -2 19 1 4 3 -2 6 -13 5 -11 0 -14 -3 -6 -6z"/>
<path d="M12853 8253 c9 -2 23 -2 30 0 6 3 -1 5 -18 5 -16 0 -22 -2 -12 -5z"/>
<path d="M12858 8233 c6 -2 18 -2 25 0 6 3 1 5 -13 5 -14 0 -19 -2 -12 -5z"/>
<path d="M13045 8230 c3 -5 8 -10 11 -10 2 0 4 5 4 10 0 6 -5 10 -11 10 -5 0
-7 -4 -4 -10z"/>
<path d="M12850 8210 c0 -5 9 -10 20 -10 11 0 20 5 20 10 0 6 -9 10 -20 10
-11 0 -20 -4 -20 -10z"/>
<path d="M12858 8183 c6 -2 18 -2 25 0 6 3 1 5 -13 5 -14 0 -19 -2 -12 -5z"/>
<path d="M12858 8163 c6 -2 18 -2 25 0 6 3 1 5 -13 5 -14 0 -19 -2 -12 -5z"/>
<path d="M12850 8130 c0 -13 7 -20 20 -20 13 0 20 7 20 20 0 13 -7 20 -20 20
-13 0 -20 -7 -20 -20z"/>
<path d="M12858 8093 c6 -2 18 -2 25 0 6 3 1 5 -13 5 -14 0 -19 -2 -12 -5z"/>
<path d="M12850 8060 c0 -13 7 -20 20 -20 13 0 20 7 20 20 0 13 -7 20 -20 20
-13 0 -20 -7 -20 -20z"/>
<path d="M13031 8045 l-23 -25 26 0 c21 0 26 5 26 25 0 30 1 30 -29 0z"/>
<path d="M12858 8023 c6 -2 18 -2 25 0 6 3 1 5 -13 5 -14 0 -19 -2 -12 -5z"/>
<path d="M13208 8253 c12 -2 30 -2 40 0 9 3 -1 5 -23 4 -22 0 -30 -2 -17 -4z"/>
<path d="M13228 8233 c12 -2 30 -2 40 0 9 3 -1 5 -23 4 -22 0 -30 -2 -17 -4z"/>
<path d="M13240 8210 c0 -5 14 -10 31 -10 17 0 28 4 24 10 -3 6 -17 10 -31 10
-13 0 -24 -4 -24 -10z"/>
<path d="M13273 8183 c9 -2 25 -2 35 0 9 3 1 5 -18 5 -19 0 -27 -2 -17 -5z"/>
<path d="M13293 8163 c9 -2 25 -2 35 0 9 3 1 5 -18 5 -19 0 -27 -2 -17 -5z"/>
<path d="M13305 8140 c3 -5 20 -10 36 -10 18 0 28 4 24 10 -3 6 -20 10 -36 10
-18 0 -28 -4 -24 -10z"/>
<path d="M13343 8113 c9 -2 25 -2 35 0 9 3 1 5 -18 5 -19 0 -27 -2 -17 -5z"/>
<path d="M13363 8093 c9 -2 25 -2 35 0 9 3 1 5 -18 5 -19 0 -27 -2 -17 -5z"/>
<path d="M13385 8060 c10 -11 22 -20 27 -20 4 0 8 9 8 20 0 15 -7 20 -27 20
-25 0 -26 0 -8 -20z"/>
<path d="M13568 8253 c7 -3 16 -2 19 1 4 3 -2 6 -13 5 -11 0 -14 -3 -6 -6z"/>
<path d="M13678 8253 c6 -2 18 -2 25 0 6 3 1 5 -13 5 -14 0 -19 -2 -12 -5z"/>
<path d="M13798 8253 c7 -3 16 -2 19 1 4 3 -2 6 -13 5 -11 0 -14 -3 -6 -6z"/>
<path d="M13678 8233 c6 -2 18 -2 25 0 6 3 1 5 -13 5 -14 0 -19 -2 -12 -5z"/>
<path d="M13670 8210 c0 -5 9 -10 20 -10 11 0 20 5 20 10 0 6 -9 10 -20 10
-11 0 -20 -4 -20 -10z"/>
<path d="M13678 8183 c6 -2 18 -2 25 0 6 3 1 5 -13 5 -14 0 -19 -2 -12 -5z"/>
<path d="M13678 8163 c6 -2 18 -2 25 0 6 3 1 5 -13 5 -14 0 -19 -2 -12 -5z"/>
<path d="M13670 8130 c0 -13 7 -20 20 -20 13 0 20 7 20 20 0 13 -7 20 -20 20
-13 0 -20 -7 -20 -20z"/>
<path d="M13678 8093 c6 -2 18 -2 25 0 6 3 1 5 -13 5 -14 0 -19 -2 -12 -5z"/>
<path d="M13670 8060 c0 -13 7 -20 20 -20 13 0 20 7 20 20 0 13 -7 20 -20 20
-13 0 -20 -7 -20 -20z"/>
<path d="M13678 8023 c6 -2 18 -2 25 0 6 3 1 5 -13 5 -14 0 -19 -2 -12 -5z"/>
<path d="M13983 8253 c9 -2 23 -2 30 0 6 3 -1 5 -18 5 -16 0 -22 -2 -12 -5z"/>
<path d="M13983 8233 c9 -2 23 -2 30 0 6 3 -1 5 -18 5 -16 0 -22 -2 -12 -5z"/>
<path d="M13980 8210 c0 -5 7 -10 15 -10 8 0 15 5 15 10 0 6 -7 10 -15 10 -8
0 -15 -4 -15 -10z"/>
<path d="M13983 8183 c9 -2 23 -2 30 0 6 3 -1 5 -18 5 -16 0 -22 -2 -12 -5z"/>
<path d="M13983 8163 c9 -2 23 -2 30 0 6 3 -1 5 -18 5 -16 0 -22 -2 -12 -5z"/>
<path d="M13974 8130 c0 -14 7 -20 21 -20 14 0 21 6 21 20 0 14 -7 20 -21 20
-14 0 -21 -6 -21 -20z"/>
<path d="M13983 8093 c9 -2 23 -2 30 0 6 3 -1 5 -18 5 -16 0 -22 -2 -12 -5z"/>
<path d="M13974 8060 c0 -14 7 -20 21 -20 14 0 21 6 21 20 0 14 -7 20 -21 20
-14 0 -21 -6 -21 -20z"/>
<path d="M13983 8023 c9 -2 23 -2 30 0 6 3 -1 5 -18 5 -16 0 -22 -2 -12 -5z"/>
<path d="M14238 8233 c12 -2 30 -2 40 0 9 3 -1 5 -23 4 -22 0 -30 -2 -17 -4z"/>
<path d="M14255 8210 c3 -5 17 -10 31 -10 14 0 22 4 19 10 -3 6 -17 10 -31 10
-14 0 -22 -4 -19 -10z"/>
<path d="M14288 8183 c12 -2 30 -2 40 0 9 3 -1 5 -23 4 -22 0 -30 -2 -17 -4z"/>
<path d="M14308 8163 c12 -2 30 -2 40 0 9 3 -1 5 -23 4 -22 0 -30 -2 -17 -4z"/>
<path d="M14315 8140 c3 -5 20 -10 36 -10 18 0 28 4 24 10 -3 6 -20 10 -36 10
-18 0 -28 -4 -24 -10z"/>
<path d="M14353 8113 c9 -2 25 -2 35 0 9 3 1 5 -18 5 -19 0 -27 -2 -17 -5z"/>
<path d="M14373 8093 c9 -2 25 -2 35 0 9 3 1 5 -18 5 -19 0 -27 -2 -17 -5z"/>
<path d="M14398 8060 c12 -11 25 -20 29 -20 5 0 9 9 9 20 0 16 -7 20 -30 20
l-30 0 22 -20z"/>
</g>
</svg>
